{"title":"Prom.2011.720p.BRRip.x264.Feel-Free","uid":6598048,"size":2673174714,"categoryP":"video","categoryS":"hd___movies","magnet":"?xt=urn:btih:1b63179439a92f761f804723b370bc8613c52926&amp;dn=Prom.2011.720p.BRRip.x264.Feel-Free&amp;tr=udp%3A%2F%2Ftracker.openbittorrent.com%3A80&amp;tr=udp%3A%2F%2Fopen.demonii.com%3A1337&amp;tr=udp%3A%2F%2Ftracker.coppersurfer.tk%3A6969&amp;tr=udp%3A%2F%2Fexodus.desync.com%3A6969","seeders":1,"leechers":0,"uploader":".BONE.","files":9,"time":1313097416,"description":"Genre:Comedy | Drama\nLanguage:English\n &lt;a href=&quot;\nhttp://www.imdb.com/title/tt1604171/&quot; rel=&quot;nofollow&quot; target=&quot;_NEW&quot;&gt;\nhttp://www.imdb.com/title/tt1604171/&lt;/a&gt;\n\nSource:Bluray.x264.MHD Thanks!\nSubtitles:Romana\n\nFormat : MPEG-4\nFormat profile : Base Media\nCodec ID : isom\nFile size : 2.49 GiB\nDuration : 1h 43mn\nOverall bit rate : 3 429 Kbps\n\nVideo\nID : 1\nFormat : AVC\nFormat/Info : Advanced Video Codec\nFormat profile : &lt;a class=&quot;__cf_email__&quot; href=&quot;/cdn-cgi/l/email-protection&quot; data-cfemail=&quot;3870515f5078740c1609&quot;&gt;[email&amp;#160;protected]&lt;/a&gt;&lt;script cf-hash='f9e31' type=&quot;text/javascript&quot;&gt;\n/* &lt;![CDATA[ */!function(){try{var t=&quot;currentScript&quot;in document?document.currentScript:function(){for(var t=document.getElementsByTagName(&quot;script&quot;),e=t.length;e--;)if(t[e].getAttribute(&quot;cf-hash&quot;))return t[e]}();if(t&amp;&amp;t.previousSibling){var e,r,n,i,c=t.previousSibling,a=c.getAttribute(&quot;data-cfemail&quot;);if(a){for(e=&quot;&quot;,r=parseInt(a.substr(0,2),16),n=2;a.length-n;n+=2)i=parseInt(a.substr(n,2),16)^r,e+=String.fromCharCode(i);e=document.createTextNode(e),c.parentNode.replaceChild(e,c)}}}catch(u){}}();/* ]]&gt; */&lt;/script&gt;\nFormat settings, CABAC : Yes\nFormat settings, ReFrames : 3 frames\nCodec ID : avc1\nCodec ID/Info : Advanced Video Coding\nDuration : 1h 43mn\nBit rate mode : Variable\nBit rate : 3 000 Kbps\nMaximum bit rate : 14.5 Mbps\nWidth : 1 280 pixels\nHeight : 720 pixels\nDisplay aspect ratio : 16:9\nFrame rate mode : Constant\nFrame rate : 23.976 fps\nColor space : YUV\nChroma subsampling : 4:2:0\nBit depth : 8 bits\nScan type : Progressive\nBits/(Pixel*Frame) : 0.136\nStream size : 2.16 GiB (87%)\nWriting library : x264\n\nAudio\nID : 2\nFormat : AAC\nFormat/Info : Advanced Audio Codec\nFormat version : Version 4\nFormat profile : LC\nFormat settings, SBR : No\nCodec ID : 40\nDuration : 1h 43mn\nBit rate mode : Variable\nBit rate : 442 Kbps\nMaximum bit rate : 508 Kbps\nChannel(s) : 6 channels\nChannel positions : Front: L C R, Side: L R, LFE\nSampling rate : 48.0 KHz\nStream size : 328 MiB (13%)\n\n\nPlot:\nA group of teenagers get ready for their high school prom\n &lt;a href=&quot;\nhttp://www.pix2links.com/images/14592978510776045151.png&quot; rel=&quot;nofollow&quot; target=&quot;_NEW&quot;&gt;\nhttp://www.pix2links.com/images/14592978510776045151.png&lt;/a&gt;\n &lt;a href=&quot;\nhttp://www.pix2links.com/images/43453861387695606247.png&quot; rel=&quot;nofollow&quot; target=&quot;_NEW&quot;&gt;\nhttp://www.pix2links.com/images/43453861387695606247.png&lt;/a&gt;\n &lt;a href=&quot;\nhttp://www.pix2links.com/images/59775925096110384817.png&quot; rel=&quot;nofollow&quot; target=&quot;_NEW&quot;&gt;\nhttp://www.pix2links.com/images/59775925096110384817.png&lt;/a&gt;\n &lt;a href=&quot;\nhttp://www.pix2links.com/images/98534533030652231518.png&quot; rel=&quot;nofollow&quot; target=&quot;_NEW&quot;&gt;\nhttp://www.pix2links.com/images/98534533030652231518.png&lt;/a&gt;","torrent":{"xt":"urn:btih:1b63179439a92f761f804723b370bc8613c52926","amp;dn":"Prom.2011.720p.BRRip.x264.Feel-Free","amp;tr":["udp%3A%2F%2Ftracker.openbittorrent.com%3A80","udp%3A%2F%2Fopen.demonii.com%3A1337","udp%3A%2F%2Ftracker.coppersurfer.tk%3A6969","udp%3A%2F%2Fexodus.desync.com%3A6969"],"infoHash":"1b63179439a92f761f804723b370bc8613c52926","infoHashBuffer":{"type":"Buffer","data":[27,99,23,148,57,169,47,118,31,128,71,35,179,112,188,134,19,197,41,38]},"announce":[],"urlList":[]}}